# xmcd
#
# Track frame offsets:
#	150
#	19050
#	33679
#	53703
#	67155
#	81830
#	96081
#	112538
#	127628
#	139359
#	162288
#	183910
#	202735
#	222940
#
# Disc length: 3454 seconds
#
# Revision: 1
# Processed by: cddbd v1.5.2PL0 Copyright (c) Steve Scherf et al.
# Submitted via: audiograbber 1.83.01
#
DISCID=b70d7c0e
DTITLE=Jan Groth - The Writing on the Wall
DYEAR=2016
DGENRE=gospel
TTITLE0=Turn Me Loose
TTITLE1=Why Don´t We
TTITLE2=Get Back Home To You
TTITLE3=Speak It (with Aunt Mary)
TTITLE4=In Your Hands
TTITLE5=Hopes For a Better World
TTITLE6=Put Away Your Worries
TTITLE7=Friends
TTITLE8=Keeper of My Soul
TTITLE9=Without You
TTITLE10=What Does It Take To Wake Up
TTITLE11=What´s It To Ya
TTITLE12=Together
TTITLE13=Where Did My Days Go
EXTD=
EXTT0=
EXTT1=
EXTT2=
EXTT3=
EXTT4=
EXTT5=
EXTT6=
EXTT7=
EXTT8=
EXTT9=
EXTT10=
EXTT11=
EXTT12=
EXTT13=
PLAYORDER=
